HIERARCHY
ROOT joint_Root
{
	OFFSET 0.0 0.0 0.0
	CHANNELS 6 Xposition Yposition Zposition Zrotation Xrotation Yrotation 
	JOINT Hips
	{
		OFFSET -17.1583 93.1646 452.98
		CHANNELS 6 Xposition Yposition Zposition Zrotation Xrotation Yrotation 
		JOINT Spine
		{
			OFFSET 15.7357 0.0 0.0
			CHANNELS 6 Xposition Yposition Zposition Zrotation Xrotation Yrotation 
			JOINT Chest
			{
				OFFSET 8.98455 -0.406207 0.0
				CHANNELS 6 Xposition Yposition Zposition Zrotation Xrotation Yrotation 
				JOINT Neck
				{
					OFFSET 16.3773 0.0 0.0
					CHANNELS 6 Xposition Yposition Zposition Zrotation Xrotation Yrotation 
					JOINT Head
					{
						OFFSET 6.45672 0.0 0.0
						CHANNELS 6 Xposition Yposition Zposition Zrotation Xrotation Yrotation 
						End Site
						{
							OFFSET 0.0 0.0 0.0
						}
					}
				}
				JOINT Shoulder_L
				{
					OFFSET 12.9942 -0.242716 4.98039
					CHANNELS 6 Xposition Yposition Zposition Zrotation Xrotation Yrotation 
					JOINT UpperArm_L
					{
						OFFSET 5.34809 0.0 0.0
						CHANNELS 6 Xposition Yposition Zposition Zrotation Xrotation Yrotation 
						JOINT LowerArm_L
						{
							OFFSET 24.3286 1.87007e-05 0.0
							CHANNELS 6 Xposition Yposition Zposition Zrotation Xrotation Yrotation 
							JOINT Hand_L
							{
								OFFSET 22.2916 0.0 0.0
								CHANNELS 6 Xposition Yposition Zposition Zrotation Xrotation Yrotation 
								End Site
								{
									OFFSET 0.0 0.0 0.0
								}
							}
						}
					}
				}
				JOINT Shoulder_R
				{
					OFFSET 12.9945 -0.242716 -4.98039
					CHANNELS 6 Xposition Yposition Zposition Zrotation Xrotation Yrotation 
					JOINT UpperArm_R
					{
						OFFSET -5.34813 0.0 0.0
						CHANNELS 6 Xposition Yposition Zposition Zrotation Xrotation Yrotation 
						JOINT LowerArm_R
						{
							OFFSET -24.3289 0.000322201 0.0
							CHANNELS 6 Xposition Yposition Zposition Zrotation Xrotation Yrotation 
							JOINT Hand_R
							{
								OFFSET -22.2915 -0.000108084 0.0
								CHANNELS 6 Xposition Yposition Zposition Zrotation Xrotation Yrotation 
								End Site
								{
									OFFSET 0.0 0.0 0.0
								}
							}
						}
					}
				}
			}
		}
		JOINT UpperLeg_L
		{
			OFFSET -2.19248 -6.46944 0.0
			CHANNELS 6 Xposition Yposition Zposition Zrotation Xrotation Yrotation 
			JOINT LowerLeg_L
			{
				OFFSET 39.0811 0.0 -1.23785e-05
				CHANNELS 6 Xposition Yposition Zposition Zrotation Xrotation Yrotation 
				JOINT Foot_L
				{
					OFFSET 40.9854 0.0 -1.26872e-05
					CHANNELS 6 Xposition Yposition Zposition Zrotation Xrotation Yrotation 
					JOINT Toes_L
					{
						OFFSET 11.7543 0.0 0.0
						CHANNELS 6 Xposition Yposition Zposition Zrotation Xrotation Yrotation 
						End Site
						{
							OFFSET 0.0 0.0 0.0
						}
					}
				}
			}
		}
		JOINT UpperLeg_R
		{
			OFFSET -2.19251 6.46944 0.0
			CHANNELS 6 Xposition Yposition Zposition Zrotation Xrotation Yrotation 
			JOINT LowerLeg_R
			{
				OFFSET -39.0811 -0.00228153 -0.0401928
				CHANNELS 6 Xposition Yposition Zposition Zrotation Xrotation Yrotation 
				JOINT Foot_R
				{
					OFFSET -40.9854 0.0 0.0
					CHANNELS 6 Xposition Yposition Zposition Zrotation Xrotation Yrotation 
					JOINT Toes_R
					{
						OFFSET -11.7543 0.0 0.0
						CHANNELS 6 Xposition Yposition Zposition Zrotation Xrotation Yrotation 
						End Site
						{
							OFFSET 0.0 0.0 0.0
						}
					}
				}
			}
		}
	}
}
MOTION
Frames:	4
Frame Time:	0.0333333
0.000000 0.000000 0.000000 0.000000 0.000000 -0.000000 0.777279 92.787600 1.720160 87.784800 -2.077700 3.243840 15.735700 0.000005 -0.000001 101.740000 87.488600 -100.821000 8.984550 -0.406207 -0.000000 -2.855380 0.936468 1.860010 16.377300 -0.000001 -0.000001 5.690820 3.012370 0.068474 6.456720 -0.000001 -0.000000 4.486800 3.410030 1.752360 12.994200 -0.242716 4.980390 -92.562900 7.591430 -71.282300 5.348090 -0.000007 -0.000001 -71.098900 20.481900 -0.203864 24.328600 0.000019 0.000005 9.623930 26.355700 -20.904600 22.291600 -0.000001 0.000005 -3.267310 5.025470 6.772790 12.994500 -0.242716 -4.980390 88.537400 5.152130 -74.128300 -5.348130 -0.000001 -0.000004 -72.167300 27.996400 -2.826100 -24.328900 0.000322 -0.000009 1.284340 4.870480 -14.803500 -22.291500 -0.000108 -0.000004 1.030410 5.267500 0.965729 -2.192480 -6.469440 -0.000000 -173.874000 -7.492610 2.086630 39.081100 -0.000007 -0.000012 0.058381 -0.186449 17.386600 40.985400 -0.000006 -0.000013 0.291156 11.166200 -70.596800 11.754300 -0.000000 0.000003 -0.001812 0.193961 -8.707830 -2.192510 6.469440 -0.000001 175.927000 6.385120 -176.389000 -39.081100 -0.002282 -0.040193 0.003079 0.001117 12.838800 -40.985400 0.000008 0.000006 -7.561480 8.525580 -67.585800 -11.754300 -0.000006 -0.000006 -0.012748 0.290805 -4.752640
0.000000 0.000000 0.000000 0.000000 0.000000 -0.000000 0.778899 92.784400 1.765300 87.790500 -2.127050 3.119400 15.735700 0.000005 -0.000001 102.626000 87.469500 -101.638000 8.984550 -0.406207 -0.000000 -2.835500 1.014540 1.999600 16.377300 -0.000001 -0.000001 5.625180 2.911760 0.485417 6.456720 -0.000001 -0.000000 4.233740 3.392130 1.671030 12.994200 -0.242716 4.980390 -92.581100 7.609560 -71.200500 5.348090 -0.000007 -0.000001 -70.566300 18.787300 -0.742246 24.328600 0.000019 0.000005 9.482010 26.572000 -20.474300 22.291600 -0.000001 0.000005 -3.669260 5.040660 6.442310 12.994500 -0.242716 -4.980390 88.617200 4.895700 -74.206000 -5.348130 -0.000001 -0.000004 -72.312300 27.622200 -2.705820 -24.328900 0.000322 -0.000009 1.203140 4.474220 -15.080700 -22.291500 -0.000108 -0.000004 1.048700 5.267210 0.973407 -2.192480 -6.469440 -0.000000 -173.840000 -7.759800 2.030360 39.081100 -0.000007 -0.000012 0.057045 -0.182713 17.339100 40.985400 -0.000006 -0.000013 0.317804 11.388800 -70.583900 11.754300 -0.000000 0.000003 -0.001760 0.193300 -8.734710 -2.192510 6.469440 -0.000001 175.944000 6.293340 -176.509000 -39.081100 -0.002282 -0.040193 0.003498 -0.000721 12.856500 -40.985400 0.000008 0.000006 -7.612330 8.511980 -67.585800 -11.754300 -0.000006 -0.000006 -0.012572 0.289610 -4.801610
0.000000 0.000000 0.000000 0.000000 0.000000 -0.000000 0.753309 92.799000 1.792140 87.826900 -2.072470 2.984160 15.735700 0.000005 -0.000001 103.203000 87.449900 -102.148000 8.984550 -0.406207 -0.000000 -2.809760 1.067140 2.135520 16.377300 -0.000001 -0.000001 5.491670 2.788500 0.937444 6.456720 -0.000001 -0.000000 3.872780 3.387720 1.809300 12.994200 -0.242716 4.980390 -92.602000 7.641030 -71.131000 5.348090 -0.000007 -0.000001 -69.718800 17.173500 -1.443830 24.328600 0.000019 0.000005 9.375100 26.872200 -20.065700 22.291600 -0.000001 0.000005 -4.667290 5.055730 6.107420 12.994500 -0.242716 -4.980390 88.679400 4.682780 -74.231700 -5.348130 -0.000001 -0.000004 -72.364600 27.185000 -2.577240 -24.328900 0.000322 -0.000009 1.160570 4.227610 -15.379200 -22.291500 -0.000108 -0.000004 1.086450 5.269790 0.904035 -2.192480 -6.469440 -0.000000 -173.850000 -7.921630 2.004620 39.081100 -0.000007 -0.000012 0.056712 -0.183630 17.162900 40.985400 -0.000006 -0.000013 0.313712 11.566700 -70.608800 11.754300 -0.000000 0.000003 -0.001904 0.195134 -8.660150 -2.192510 6.469440 -0.000001 175.927000 6.284620 -176.572000 -39.081100 -0.002282 -0.040193 0.002903 0.001905 12.751700 -40.985400 0.000008 0.000006 -7.797520 8.438200 -67.549300 -11.754300 -0.000006 -0.000006 -0.012944 0.292128 -4.698450
0.000000 0.000000 0.000000 0.000000 0.000000 -0.000000 0.737150 92.804500 1.814880 87.857400 -2.106800 2.794980 15.735700 0.000005 -0.000001 104.363000 87.445600 -103.222000 8.984550 -0.406207 -0.000000 -2.827660 1.161440 2.309170 16.377300 -0.000001 -0.000001 5.358210 2.664560 1.513790 6.456720 -0.000001 -0.000000 3.351120 3.414760 2.046360 12.994200 -0.242716 4.980390 -92.664600 7.788960 -71.047800 5.348090 -0.000007 -0.000001 -68.306900 15.321500 -2.263130 24.328600 0.000019 0.000005 9.621030 27.950800 -19.883000 22.291600 -0.000001 0.000005 -6.500330 5.100190 5.097950 12.994500 -0.242716 -4.980390 88.736700 4.489080 -74.265100 -5.348130 -0.000001 -0.000004 -72.318600 26.717800 -2.525030 -24.328900 0.000322 -0.000009 1.148040 4.149370 -15.494000 -22.291500 -0.000108 -0.000004 1.186070 5.274590 0.773970 -2.192480 -6.469440 -0.000000 -173.848000 -8.145070 1.887790 39.081100 -0.000007 -0.000012 0.054939 -0.179048 17.058300 40.985400 -0.000006 -0.000013 0.306644 11.740300 -70.594800 11.754300 -0.000000 0.000003 -0.002079 0.197334 -8.570690 -2.192510 6.469440 -0.000001 175.943000 6.180220 -176.739000 -39.081100 -0.002282 -0.040193 0.003778 -0.001965 12.717900 -40.985400 0.000008 0.000006 -7.762990 8.386050 -67.567500 -11.754300 -0.000006 -0.000006 -0.012773 0.290974 -4.745740
